<?xml version="1.0" encoding="UTF-8"?>
<svg version="1.1" xmlns="http://www.w3.org/2000/svg" width="500" height="500">
<path d="M0 0 C165 0 330 0 500 0 C500 165 500 330 500 500 C335 500 170 500 0 500 C0 335 0 170 0 0 Z " fill="#0B0B0B" transform="translate(0,0)"/>
<path d="M0 0 C79.53 0 159.06 0 241 0 C241 79.53 241 159.06 241 241 C161.47 241 81.94 241 0 241 C0 161.47 0 81.94 0 0 Z " fill="#FCFCFC" transform="translate(129,129)"/>
<path d="M0 0 C40.26 0 80.52 0 122 0 C122 79.53 122 159.06 122 241 C81.74 241 41.48 241 0 241 C0 161.47 0 81.94 0 0 Z " fill="#FEFEFE" transform="translate(0,129)"/>
<path d="M0 0 C79.53 0 159.06 0 241 0 C241 40.26 241 80.52 241 122 C161.47 122 81.94 122 0 122 C0 81.74 0 41.48 0 0 Z " fill="#FEFEFE" transform="translate(129,0)"/>
<path d="M0 0 C79.2 0 158.4 0 240 0 C240 40.26 240 80.52 240 122 C160.8 122 81.6 122 0 122 C0 81.74 0 41.48 0 0 Z " fill="#FFFFFF" transform="translate(130,378)"/>
<path d="M0 0 C40.26 0 80.52 0 122 0 C122 79.2 122 158.4 122 240 C81.74 240 41.48 240 0 240 C0 160.8 0 81.6 0 0 Z " fill="#FFFFFF" transform="translate(378,130)"/>
<path d="M0 0 C108.60231397 0 108.60231397 0 124 14.1875 C134.04628729 25.09596867 135.60594139 36.72109136 135.13183594 50.86816406 C134.51299814 60.87500041 129.32881851 70.29925922 121.9375 76.9375 C119.67112459 78.79497082 117.54264903 80.26678807 115 81.75 C114.34 82.1625 113.68 82.575 113 83 C113 83.99 113 84.98 113 86 C113.60585938 86.21914062 114.21171875 86.43828125 114.8359375 86.6640625 C129.28893532 92.13396629 138.33802147 99.48346399 145.7734375 113.12890625 C148.4217186 119.3279082 149.36800738 125.316768 149.3125 132.0625 C149.30686035 132.7949292 149.3012207 133.5273584 149.29541016 134.28198242 C148.96354513 149.52313008 145.00416639 163.74364809 134.2421875 174.97265625 C122.31177918 185.75990698 106.97307144 190.17481938 91.16088867 190.11352539 C89.65828853 190.11370619 89.65828853 190.11370619 88.12533283 190.11389065 C84.88952205 190.11314552 81.6537692 190.10553545 78.41796875 190.09765625 C76.41752144 190.09618559 74.41707375 190.09516564 72.41662598 190.09460449 C65.00691144 190.08936594 57.59720515 190.07540472 50.1875 190.0625 C33.625625 190.041875 17.06375 190.02125 0 190 C0 127.3 0 64.6 0 0 Z " fill="#010101" transform="translate(182,162)"/>
<path d="M0 0 C40.26 0 80.52 0 122 0 C122 40.26 122 80.52 122 122 C81.74 122 41.48 122 0 122 C0 81.74 0 41.48 0 0 Z " fill="#FFFFFF" transform="translate(378,378)"/>
<path d="M0 0 C40.26 0 80.52 0 122 0 C122 40.26 122 80.52 122 122 C81.74 122 41.48 122 0 122 C0 81.74 0 41.48 0 0 Z " fill="#FEFEFE" transform="translate(0,378)"/>
<path d="M0 0 C40.26 0 80.52 0 122 0 C122 40.26 122 80.52 122 122 C81.74 122 41.48 122 0 122 C0 81.74 0 41.48 0 0 Z " fill="#FFFFFF" transform="translate(378,0)"/>
<path d="M0 0 C40.26 0 80.52 0 122 0 C122 40.26 122 80.52 122 122 C81.74 122 41.48 122 0 122 C0 81.74 0 41.48 0 0 Z " fill="#FEFEFE" transform="translate(0,0)"/>
<path d="M0 0 C12.313125 -0.0928125 12.313125 -0.0928125 24.875 -0.1875 C28.73227783 -0.22846802 28.73227783 -0.22846802 32.66748047 -0.27026367 C34.73404472 -0.2790357 36.80061421 -0.28667794 38.8671875 -0.29296875 C39.91720947 -0.30831665 40.96723145 -0.32366455 42.04907227 -0.33947754 C51.07554808 -0.34264176 59.94527341 0.92965386 67 7 C73.85436699 16.08824147 75.07175719 24.89524879 74 36 C72.41297235 43.77442661 68.50210565 48.59574353 62 53 C53.62717425 57.56699587 44.36735774 57.14793537 35.05859375 57.09765625 C34.16338013 57.09664917 33.2681665 57.09564209 32.3458252 57.09460449 C29.04303686 57.08942354 25.74026696 57.07546282 22.4375 57.0625 C15.033125 57.041875 7.62875 57.02125 0 57 C0 38.19 0 19.38 0 0 Z " fill="#FCFCFC" transform="translate(219,266)"/>
<path d="M0 0 C6.8475 -0.103125 13.695 -0.20625 20.75 -0.3125 C22.8856543 -0.35802002 25.02130859 -0.40354004 27.22167969 -0.45043945 C48.25969822 -0.71181657 48.25969822 -0.71181657 56.74560547 6.47924805 C62.36058592 12.66963977 62.44507909 19.38234688 62.2421875 27.328125 C61.82993659 33.57838074 60.51011415 37.88171802 55.875 42.3125 C48.8143658 47.61329761 41.31967231 48.44263502 32.71484375 48.29296875 C31.87860474 48.28994751 31.04236572 48.28692627 30.18078613 48.28381348 C27.09956262 48.26828636 24.01851702 48.22640434 20.9375 48.1875 C10.5734375 48.0946875 10.5734375 48.0946875 0 48 C0 32.16 0 16.32 0 0 Z " fill="#FAFAFA" transform="translate(219,190)"/>
</svg>
